<svg width="24" height="24" viewBox="0 0 24 24" fill="none" xmlns="http://www.w3.org/2000/svg">
  <defs>
    <linearGradient id="openaiGrad" x1="0%" y1="0%" x2="100%" y2="100%">
      <stop offset="0%" style="stop-color:#00D4AA;stop-opacity:1" />
      <stop offset="50%" style="stop-color:#74AA9C;stop-opacity:1" />
      <stop offset="100%" style="stop-color:#412991;stop-opacity:1" />
    </linearGradient>
  </defs>
  
  <!-- OpenAI logo simplified -->
  <g transform="translate(2, 2)">
    <path d="M 10 1 C 13.5 1 16.5 3.5 17 7 C 19.5 7.5 21 9.5 21 12 C 21 14.5 19.5 16.5 17 17 C 16.5 20.5 13.5 23 10 23 C 6.5 23 3.5 20.5 3 17 C 0.5 16.5 -1 14.5 -1 12 C -1 9.5 0.5 7.5 3 7 C 3.5 3.5 6.5 1 10 1 Z" 
          fill="none" stroke="url(#openaiGrad)" stroke-width="1.5"/>
    
    <!-- Inner circles representing AI nodes -->
    <circle cx="10" cy="6" r="1.5" fill="url(#openaiGrad)" opacity="0.8"/>
    <circle cx="6" cy="12" r="1.5" fill="url(#openaiGrad)" opacity="0.6"/>
    <circle cx="14" cy="12" r="1.5" fill="url(#openaiGrad)" opacity="0.6"/>
    <circle cx="10" cy="18" r="1.5" fill="url(#openaiGrad)" opacity="0.8"/>
    
    <!-- Central node -->
    <circle cx="10" cy="12" r="2" fill="url(#openaiGrad)" opacity="0.4"/>
    
    <!-- Connection lines -->
    <line x1="10" y1="8" x2="10" y2="10" stroke="url(#openaiGrad)" stroke-width="1" opacity="0.6"/>
    <line x1="10" y1="14" x2="10" y2="16" stroke="url(#openaiGrad)" stroke-width="1" opacity="0.6"/>
    <line x1="8" y1="12" x2="8" y2="12" stroke="url(#openaiGrad)" stroke-width="1" opacity="0.6"/>
    <line x1="12" y1="12" x2="12" y2="12" stroke="url(#openaiGrad)" stroke-width="1" opacity="0.6"/>
  </g>
</svg>