<svg width="24" height="24" viewBox="0 0 24 24" fill="none" xmlns="http://www.w3.org/2000/svg">
  <defs>
    <linearGradient id="pythonBlue" x1="0%" y1="0%" x2="100%" y2="100%">
      <stop offset="0%" style="stop-color:#3776ab;stop-opacity:1" />
      <stop offset="100%" style="stop-color:#366994;stop-opacity:1" />
    </linearGradient>
    <linearGradient id="pythonYellow" x1="0%" y1="0%" x2="100%" y2="100%">
      <stop offset="0%" style="stop-color:#ffd43b;stop-opacity:1" />
      <stop offset="100%" style="stop-color:#ffcc02;stop-opacity:1" />
    </linearGradient>
  </defs>
  
  <!-- Python logo simplified -->
  <g transform="translate(2, 2)">
    <!-- Top half (blue) -->
    <path d="M 4 2 Q 2 2 2 4 L 2 8 Q 2 10 4 10 L 10 10 L 10 8 L 6 8 Q 4 8 4 6 L 4 4 Q 4 2 6 2 L 14 2 Q 16 2 16 4 L 16 6 Q 16 8 14 8 L 12 8 L 12 10 L 16 10 Q 18 10 18 8 L 18 4 Q 18 2 16 2 L 4 2 Z" 
          fill="url(#pythonBlue)"/>
    
    <!-- Bottom half (yellow) -->
    <path d="M 16 18 Q 18 18 18 16 L 18 12 Q 18 10 16 10 L 10 10 L 10 12 L 14 12 Q 16 12 16 14 L 16 16 Q 16 18 14 18 L 6 18 Q 4 18 4 16 L 4 14 Q 4 12 6 12 L 8 12 L 8 10 L 4 10 Q 2 10 2 12 L 2 16 Q 2 18 4 18 L 16 18 Z" 
          fill="url(#pythonYellow)"/>
    
    <!-- Eyes -->
    <circle cx="6" cy="5" r="1" fill="white"/>
    <circle cx="14" cy="15" r="1" fill="white"/>
  </g>
</svg>