<svg width="24" height="24" viewBox="0 0 24 24" fill="none" xmlns="http://www.w3.org/2000/svg">
  <defs>
    <linearGradient id="streamlitGrad" x1="0%" y1="0%" x2="100%" y2="100%">
      <stop offset="0%" style="stop-color:#FF4B4B;stop-opacity:1" />
      <stop offset="100%" style="stop-color:#FF2D2D;stop-opacity:1" />
    </linearGradient>
  </defs>
  
  <!-- Streamlit logo simplified -->
  <g transform="translate(2, 2)">
    <!-- Main S shape -->
    <path d="M 4 6 Q 4 4 6 4 L 12 4 Q 14 4 14 6 Q 14 8 12 8 L 8 8 Q 6 8 6 10 Q 6 12 8 12 L 14 12 Q 16 12 16 14 Q 16 16 14 16 L 8 16 Q 6 16 6 14" 
          fill="none" stroke="url(#streamlitGrad)" stroke-width="2" stroke-linecap="round"/>
    
    <!-- Data flow elements -->
    <g opacity="0.6">
      <circle cx="18" cy="6" r="1" fill="url(#streamlitGrad)"/>
      <circle cx="18" cy="10" r="1" fill="url(#streamlitGrad)"/>
      <circle cx="18" cy="14" r="1" fill="url(#streamlitGrad)"/>
      
      <!-- Flow lines -->
      <line x1="16" y1="6" x2="17" y2="6" stroke="url(#streamlitGrad)" stroke-width="1"/>
      <line x1="16" y1="10" x2="17" y2="10" stroke="url(#streamlitGrad)" stroke-width="1"/>
      <line x1="16" y1="14" x2="17" y2="14" stroke="url(#streamlitGrad)" stroke-width="1"/>
    </g>
  </g>
</svg>